<?xml version="1.0" encoding="UTF-8" standalone="no"?>
<!DOCTYPE svg PUBLIC "-//W3C//DTD SVG 20010904//EN" "http://www.w3.org/TR/2001/REC-SVG-20010904/DTD/svg10.dtd">
<svg version="1.0" xmlns="http://www.w3.org/2000/svg" width="1280.000000pt" height="1280.000000pt" viewBox="0 0 1280.000000 1280.000000" preserveAspectRatio="xMidYMid meet">
<g transform="translate(0.000000,1280.000000) scale(0.100000,-0.100000)" fill="#000000" stroke="none">
<path d="M3140 6490 l0 -4230 2135 0 2135 0 0 315 0 315 -1817 2 -1818 3 0 3595 0 3595 2625 0 2625 0 0 -3595 0 -3595 -297 -3 -298 -2 0 -315 0 -315 615 0 615 0 0 4230 0 4230 -3260 0 -3260 0 0 -4230z"/>
<path d="M4390 9270 l0 -180 2010 0 2010 0 0 180 0 180 -2010 0 -2010 0 0 -180z"/>
<path d="M4390 8315 l0 -185 2010 0 2010 0 0 185 0 185 -2010 0 -2010 0 0 -185z"/>
<path d="M4392 7358 l3 -183 2005 0 2005 0 3 183 2 182 -2010 0 -2010 0 2 -182z"/>
<path d="M4390 6400 l0 -180 2010 0 2010 0 0 180 0 180 -2010 0 -2010 0 0 -180z"/>
<path d="M4397 5623 c-4 -3 -7 -87 -7 -185 l0 -178 2010 0 2010 0 -2 183 -3 182 -2001 3 c-1100 1 -2004 -1 -2007 -5z"/>
<path d="M7894 4850 l-82 -38 -97 21 -98 21 -29 -35 c-113 -129 -107 -125 -193 -144 -44 -9 -87 -21 -95 -25 -9 -5 -23 -44 -34 -97 -21 -95 -27 -103 -131 -189 l-50 -41 19 -95 c21 -107 22 -104 -27 -210 l-36 -77 62 -82 62 -82 3 -102 4 -102 88 -43 c82 -40 89 -46 116 -99 l29 -56 3 147 3 147 -36 71 c-212 421 115 917 585 887 158 -11 282 -67 395 -181 191 -191 235 -460 115 -703 l-40 -81 0 -127 0 -127 38 7 c20 4 39 8 40 10 2 2 14 45 27 95 25 99 36 115 122 182 60 46 60 47 36 165 l-17 83 42 92 42 92 -59 76 -59 76 -7 108 -7 107 -89 45 -89 44 -45 90 -45 90 -99 0 -98 0 -78 60 c-43 33 -85 60 -94 59 -9 0 -53 -18 -97 -39z"/>
<path d="M4390 4485 l0 -185 1143 2 1142 3 3 183 2 182 -1145 0 -1145 0 0 -185z"/>
<path d="M7803 4496 c-84 -21 -162 -65 -228 -130 -162 -160 -196 -410 -81 -606 21 -35 21 -44 26 -1537 l5 -1502 194 140 c107 76 199 139 204 139 5 0 94 -61 197 -136 104 -75 194 -133 200 -129 7 4 10 474 10 1496 l0 1490 30 59 c102 202 72 416 -82 576 -124 129 -302 182 -475 140z"/>
</g>
</svg>