# Aspose.3D Wavefront OBJ Exporter
# Copyright 2004-2022 Aspose Pty Ltd.
# File created: 10/30/2022 08:41:16


#
# object obj_12488684
#

v 0 39.23305892944335936 91.24954986572265624
v 0 38.41384887695312496 92.09625244140625
v 0 39.0549774169921875 92.26325225830078124
v 0 38.60732269287109376 91.1095733642578125
v 0 37.8297157287597656 91.86930847167968752
v 0 37.58573913574218752 91.70526123046875
v 0 37.31917572021484376 91.42477416992187504
v 0 38.28416824340820312 90.95906066894531248
v 0 36.99815368652343744 90.78092956542968752
v 0 38.04082107543945312 90.70697784423828128
v 0 37.73991012573242192 90.153656005859375
v 0 36.79470443725585936 90.153656005859375
v 0 37.71251296997070312 89.46872711181640624
v 0 36.84738159179687504 88.96340942382812496
v 0 36.7810020446777344 89.46872711181640624
v 0 37.84092330932617184 89.0777740478515625
v 0 37.98069000244140624 88.83224487304687504
v 0 36.97172546386718752 88.5877685546875
v 0 38.1775054931640625 88.64933776855468752
v 0 37.12179183959960938 88.32884979248046876
v 0 38.34867477416992188 88.57125091552734376
v 0 37.533447265625 87.86932373046875008
v 0 38.82039642333984368 88.47760009765625
v 0 38.1001434326171875 87.51912689208984376
v 0 38.6533851623535156 87.39689636230468752
v 0 39.34471130371093752 87.42715454101562496
v 0 39.93025970458984368 87.67117309570312496
v 0 39.22689056396484376 88.6241455078125
v 0 40.338470458984375 88.03525543212890625
v 0 40.66658782958984376 88.50634765625
v 0 39.56160736083984376 88.95185852050781248
v 0 40.91799163818359376 89.03037261962890625
v 0 39.74195861816406256 89.251251220703125
v 0 39.83580017089843744 89.46872711181640624
v 0 41.09607315063476562 89.46872711181640624
v 0 40.12347030639648438 90.153656005859375
v 0 42.59602737426757816 87.70073699951171872
v 0 42.2193603515625 87.605712890625
v 0 42.0549774169921875 88.59201812744140624
v 0 43.273468017578125 87.97014617919921872
v 0 42.65200042724609376 88.78347778320312496
v 0 43.55854797363281248 88.1609649658203125
v 0 43.7230300903320312 88.35566711425781248
v 0 44.0010528564453125 88.92060089111328128
v 0 42.9604568481445312 89.043853759765625
v 0 43.19196319580078124 89.46872711181640624
v 0 44.17826461791992188 89.46872711181640624
v 0 44.17826461791992188 90.153656005859375
v 0 45.04127883911132812 89.46872711181640624
v 0 45.04127883911132812 90.153656005859375
v 0 42.95908737182617184 90.82489013671875008
v 0 44.09697723388671876 90.72373962402343744
v 0 43.0967559814453125 90.54485321044921872
v 0 43.7889518737792968 91.41482543945312496
v 0 42.76985168457031248 90.99658203125
v 0 42.45645141601562496 91.10236358642578124
v 0 43.271697998046875 91.92669677734375008
v 0 42.79367065429687504 92.13327789306640624
v 0 42.30155181884765624 92.19475555419921876
v 0 41.98910140991210944 92.173126220703125
v 0 41.54703521728515624 92.0566864013671875
v 0 42.03149795532226562 91.0473480224609375
v 0 41.13716888427734376 91.83859252929687504
v 0 40.78098297119140624 91.43727111816406248
v 0 41.79470443725585936 90.9207839965820312
v 0 40.41922760009765624 90.82356262207031248
v 0 41.52646255493164064 90.5020751953125
v 0 43.17826461791992188 90.153656005859375
v 0 41.35634613037109376 90.153656005859375
v 0 35.9042930603027344 90.153656005859375
v 0 35.9042930603027344 89.46872711181640624
v 2.07200002670288086 37.71251296997070312 89.46872711181640624
v 2.07200002670288086 39.83580017089843744 89.46872711181640624
v 2.07200002670288086 37.73991012573242192 90.153656005859375
v 2.07200002670288086 41.52646255493164064 90.5020751953125
v 2.07200002670288086 40.12347030639648438 90.153656005859375
v 2.07200002670288086 41.35634613037109376 90.153656005859375
v 2.07200002670288086 40.54557037353515624 91.0601806640625
v 2.07200002670288086 41.89433288574218752 90.98031616210937504
v 2.07200002670288086 40.89005279541015632 91.5777587890625
v 2.07200002670288086 41.271697998046875 91.91789245605468752
v 2.07200002670288086 42.41722869873046872 91.0997161865234375
v 2.07200002670288086 41.83847045898437504 92.1446533203125
v 2.07200002670288086 42.50010299682617184 92.1739044189453125
v 2.07200002670288086 42.97859954833984368 92.08251953125
v 2.07200002670288086 42.77598571777343744 87.75700378417968752
v 2.07200002670288086 42.0549774169921875 88.59201812744140624
v 2.07200002670288086 42.2193603515625 87.605712890625
v 2.07200002670288086 43.45680999755859376 88.0839996337890625
v 2.07200002670288086 42.52928161621093752 88.7209396362304688
v 2.07200002670288086 43.7230300903320312 88.35566711425781248
v 2.07200002670288086 42.77471542358398432 88.84601593017578128
v 2.07200002670288086 44.0010528564453125 88.92060089111328128
v 2.07200002670288086 42.9604568481445312 89.043853759765625
v 2.07200002670288086 45.04127883911132812 90.153656005859375
v 2.07200002670288086 44.17826461791992188 89.46872711181640624
v 2.07200002670288086 45.04127883911132812 89.46872711181640624
v 2.07200002670288086 44.17826461791992188 90.153656005859375
v 2.07200002670288086 43.19196319580078124 89.46872711181640624
v 2.07200002670288086 40.83869934082031248 88.85258483886718752
v 2.07200002670288086 41.09607315063476562 89.46872711181640624
v 2.07200002670288086 39.68690490722656248 89.1480255126953125
v 2.07200002670288086 39.49136352539062496 88.85892486572265632
v 2.07200002670288086 40.45612335205078128 88.18657684326171876
v 2.07200002670288086 39.158233642578125 88.58331298828125
v 2.07200002670288086 40.06867599487304688 87.75640106201171872
v 2.07200002670288086 38.82039642333984368 88.47760009765625
v 2.07200002670288086 39.79183959960937504 87.58595275878906248
v 2.07200002670288086 39.34471130371093752 87.42715454101562496
v 2.07200002670288086 38.86319732666015632 87.37284088134765624
v 2.07200002670288086 38.34259796142578124 87.44227600097656248
v 2.07200002670288086 37.95866012573242192 87.57466125488281248
v 2.07200002670288086 37.533447265625 87.86932373046875008
v 2.07200002670288086 38.34867477416992188 88.57125091552734376
v 2.07200002670288086 37.04676055908203125 88.45831298828125
v 2.07200002670288086 38.01617431640625 88.80471038818359376
v 2.07200002670288086 36.84738159179687504 88.96340942382812496
v 2.07200002670288086 37.84092330932617184 89.0777740478515625
v 2.07200002670288086 36.7810020446777344 89.46872711181640624
v 2.07200002670288086 35.9042930603027344 90.153656005859375
v 2.07200002670288086 35.9042930603027344 89.46872711181640624
v 2.07200002670288086 36.79470443725585936 90.153656005859375
v 2.07200002670288086 38.41384887695312496 92.09625244140625
v 2.07200002670288086 39.23305892944335936 91.24954986572265624
v 2.07200002670288086 39.0549774169921875 92.26325225830078124
v 2.07200002670288086 38.60732269287109376 91.1095733642578125
v 2.07200002670288086 37.74562072753906256 91.81753540039062496
v 2.07200002670288086 37.35242462158203124 91.45989990234375
v 2.07200002670288086 38.28416824340820312 90.95906066894531248
v 2.07200002670288086 36.99815368652343744 90.78092956542968752
v 2.07200002670288086 38.04082107543945312 90.70697784423828128
v 2.07200002670288086 43.31343078613281248 91.90414428710937504
v 2.07200002670288086 43.68511199951171872 91.57831573486328128
v 2.07200002670288086 42.80019378662109376 90.96554565429687504
v 2.07200002670288086 43.97364807128906256 91.07989501953125
v 2.07200002670288086 43.0967559814453125 90.54485321044921872
v 2.07200002670288086 44.13945388793945312 90.53903198242187504
v 2.07200002670288086 43.17826461791992188 90.153656005859375
# 138 vertices

vn -1 0 0
vn 1 0 0
vn 0 0 1
vn 0 0.21830348670482636 -0.97588092088699344
vn 0 0.42221108078956608 -0.90649753808975216
vn 0 0.7194629907608032 -0.69453078508377072
vn 0 0.87849622964859008 -0.4777493178844452
vn 0 0.9849174618721008 0.1730247437953949
vn 0 -0.95121872425079344 0.30851727724075316
vn 0 -0.88657116889953616 0.462592214345932
vn 0.00679608527570962 -0.89490652084350592 0.4462019205093384
vn -4.658343459595926E-05 -0.72486943006515504 0.68888622522354128
vn 0.01183393038809299 -0.6728156805038452 0.73971545696258544
vn -0.0019110208377242 -0.55798256397247312 0.82985049486160272
vn 0.00743724638596177 -0.38494440913200376 0.9229097962379456
vn 0 -0.36214280128479 0.93212264776229856
vn 0 -0.2520669996738434 0.96770977973937984
vn 0 -1 0
vn 0 0 -1
vn 0 -0.7708779573440552 -0.63698285818099976
vn 0.01471730601042509 -0.74475735425949104 -0.66717302799224856
vn 1.7196415456055547E-06 -0.86518561840057376 -0.50145173072814944
vn 0.01074399333447218 -0.930102288722992 -0.36714342236518856
vn 0 -0.9493406414985656 -0.31424880027770996
vn 0 -0.9914820790290832 -0.13024307787418366
vn 0.00187924760393798 -0.13220439851284028 -0.9912207126617432
vn -0.01097225677222013 -0.21571965515613556 -0.97639369964599616
vn 0.00307959783822298 -0.32597351074218752 -0.94537389278411872
vn -0.01686084643006324 -0.56950050592422488 -0.8218180537223816
vn 0 -0.52568697929382328 -0.85067808628082272
vn 2.050371222139802E-06 0.52429252862930296 -0.85153824090957648
vn -0.01639780960977077 0.33462649583816528 -0.94220817089080816
vn 0 0.38466918468475344 -0.92305451631546016
vn 0 0.11208687722682952 -0.99369841814041136
vn -0.01602439582347869 0.04372083395719528 -0.99891525506973264
vn -0.00261185131967067 0.90160602331161504 -0.4325503408908844
vn 0.01120574213564395 0.86706477403640752 -0.49806934595108032
vn -0.00485410448163747 0.82056790590286256 -0.571528434753418
vn 0.0066837090998888 0.74302917718887328 -0.66922569274902344
vn -0.01376666594296693 0.66555428504943848 -0.74622243642807008
vn 0 0.92273211479187008 -0.385441929101944
vn 0.00315945502370595 0.92646193504333504 -0.37637516856193544
vn 0 -0.26229509711265564 0.96498769521713264
vn 0.0106538264080882 -0.30535483360290528 0.95217901468276976
vn -4.1797125049924944E-07 -0.45405253767967224 0.89097493886947632
vn 0.02251322567462921 -0.7288585901260376 0.68429398536682128
vn 0 -0.64503860473632816 0.76414996385574336
vn 0 -0.87810641527175904 0.47846540808677672
vn 0 -0.9863941073417664 -0.16439774632453918
vn 0 0.9515071511268616 -0.30762669444084168
vn 0 0.89723265171051024 -0.44155812263488768
vn 0 0.71423131227493288 -0.69990974664688112
vn 0.01353607606142759 0.76383042335510256 -0.64527505636215208
vn -0.00355620635673403 0.5562405586242676 -0.83101373910903936
vn 0.01122152898460626 0.43291923403739928 -0.90136289596557616
vn -0.00686144735664129 0.3695282340049744 -0.92919415235519408
vn 0.00342498300597071 0.2622830867767334 -0.96498489379882816
vn 0 0.24461226165294648 -0.96962100267410272
vn 0 1 0
vn 0.00384068652056157 0.86543744802474976 0.50100231170654296
vn -0.01560917403548956 0.9132699966430664 0.40705555677413944
vn 0.00652767950668931 0.95606297254562384 0.29308861494064332
vn -0.01146392803639173 0.99490171670913696 0.10019530355930328
vn 0 0.98998671770095824 0.1411607414484024
vn -0.00189298344776034 0.12396067380905152 0.99228531122207648
vn 0.00731925759464502 0.18758779764175416 0.98222059011459344
vn -0.01291724666953086 0.39666220545768736 0.917873740196228
vn 0.00013635049981530756 0.47017484903335568 0.88257330656051632
vn -0.00509237451478838 0.65919184684753416 0.75195753574371344
vn -0.02082911878824234 0.70324623584747312 0.71064114570617672
vn -0.00328733981586992 -0.46974450349807736 0.88279628753662112
vn 0.01282955519855022 -0.37143337726593016 0.92837095260620112
vn -0.00522851850837469 -0.2547079026699066 0.96700388193130496
vn 0.01051686331629753 -0.04416490346193313 0.99896889925003056
vn 0.01665464602410793 -0.06904999911785126 0.99747419357299808
vn -0.00546047184616327 -0.86146068572998048 0.50779485702514648
vn 0.00625387160107493 -0.83245664834976192 0.554054856300354
vn -0.01559236459434032 -0.66525870561599728 0.74645006656646736
vn 0.02314870618283748 -0.74771231412887568 0.66361922025680544
vn 0 -0.90654486417770384 0.4221094846725464
vn 0.00965902302414178 -0.91476905345916752 0.40386170148849488
vn -0.02059000544250011 0.79246181249618528 -0.60957384109497072
vn 0 0.84202641248703008 -0.53943634033203128
vn 0 0.89860999584198 -0.43874827027320864
vn 0.00116329942829906 0.12839099764823914 -0.99172294139862064
vn -0.01680021360516548 0.22258248925209044 -0.97476911544799808
vn 0.00267371837981045 0.4713813066482544 -0.88192546367645264
vn -0.00125360966194421 -0.67194223403930664 -0.7406024932861328
vn -0.00929419696331024 -0.33062756061553956 -0.94371557235717776
vn -0.0072642439045012 -0.31979453563690184 -0.94745904207229616
vn 0 -0.97897583246231072 -0.20397636294364928
vn 0 -0.81733125448226928 -0.5761680603027344
vn -0.03884125873446464 -0.89674186706542976 -0.44084617495536808
vn -0.00593849970027804 -0.63744413852691648 0.77047365903854368
vn 0.00833132211118936 -0.69956725835800168 0.7145181894302368
vn -0.00295248627662658 -0.82831531763076784 0.56025445461273192
vn 0.00294697075150907 -0.85658454895019536 0.51599824428558352
vn -0.00312028801999986 -0.90700662136077888 0.4211048185825348
vn 0 -0.91816759109497072 0.39619228243827816
vn 0 -0.29863208532333376 0.95436829328536992
vn 0.00730092823505401 -0.3391355574131012 0.94070917367935184
vn 0 0.95006465911865232 0.31205311417579652
vn 0 0.84158468246459968 0.5401251912117004
vn -0.00830878596752882 0.86902874708175664 0.4946918189525604
vn -0.00192399963270872 0.6807492971420288 0.73251396417617792
vn -0.01662531495094299 0.57455378770828248 0.81829792261123664
vn 0 0.41504758596420288 0.9097996950149536
vn 0 0.19472937285900116 0.98085701465606688
# 108 vertex normals

g obj_12488684
s 1
f 1//1 2//1 3//1
f 4//1 2//1 1//1
f 5//1 2//1 4//1
f 4//1 6//1 5//1
f 4//1 7//1 6//1
f 8//1 7//1 4//1
f 8//1 9//1 7//1
f 10//1 9//1 8//1
f 11//1 9//1 10//1
f 12//1 9//1 11//1
f 13//1 14//1 15//1
f 16//1 14//1 13//1
f 17//1 14//1 16//1
f 17//1 18//1 14//1
f 19//1 18//1 17//1
f 19//1 20//1 18//1
f 21//1 20//1 19//1
f 21//1 22//1 20//1
f 23//1 22//1 21//1
f 23//1 24//1 22//1
f 23//1 25//1 24//1
f 26//1 25//1 23//1
f 23//1 27//1 26//1
f 28//1 27//1 23//1
f 28//1 29//1 27//1
f 28//1 30//1 29//1
f 31//1 30//1 28//1
f 31//1 32//1 30//1
f 33//1 32//1 31//1
f 34//1 32//1 33//1
f 34//1 35//1 32//1
f 36//1 35//1 34//1
f 37//1 38//1 39//1
f 39//1 40//1 37//1
f 41//1 40//1 39//1
f 41//1 42//1 40//1
f 41//1 43//1 42//1
f 41//1 44//1 43//1
f 45//1 44//1 41//1
f 46//1 44//1 45//1
f 46//1 47//1 44//1
f 48//1 47//1 46//1
f 48//1 49//1 47//1
f 50//1 49//1 48//1
f 51//1 52//1 53//1
f 51//1 54//1 52//1
f 55//1 54//1 51//1
f 56//1 54//1 55//1
f 56//1 57//1 54//1
f 56//1 58//1 57//1
f 59//1 58//1 56//1
f 56//1 60//1 59//1
f 56//1 61//1 60//1
f 62//1 61//1 56//1
f 62//1 63//1 61//1
f 62//1 64//1 63//1
f 65//1 64//1 62//1
f 65//1 66//1 64//1
f 67//1 66//1 65//1
f 48//1 53//1 52//1
f 48//1 68//1 53//1
f 46//1 68//1 48//1
f 46//1 69//1 68//1
f 35//1 69//1 46//1
f 36//1 69//1 35//1
f 36//1 67//1 69//1
f 66//1 67//1 36//1
f 70//1 15//1 71//1
f 12//1 15//1 70//1
f 12//1 13//1 15//1
f 11//1 13//1 12//1
f 11//1 34//1 13//1
f 36//1 34//1 11//1
f 72//2 73//2 74//2
f 75//2 76//2 77//2
f 75//2 78//2 76//2
f 79//2 78//2 75//2
f 79//2 80//2 78//2
f 79//2 81//2 80//2
f 82//2 81//2 79//2
f 82//2 83//2 81//2
f 84//2 83//2 82//2
f 82//2 85//2 84//2
f 86//2 87//2 88//2
f 89//2 87//2 86//2
f 89//2 90//2 87//2
f 91//2 90//2 89//2
f 91//2 92//2 90//2
f 93//2 92//2 91//2
f 93//2 94//2 92//2
f 95//2 96//2 97//2
f 98//2 96//2 95//2
f 99//2 96//2 98//2
f 99//2 93//2 96//2
f 94//2 93//2 99//2
f 73//2 100//2 101//2
f 102//2 100//2 73//2
f 103//2 100//2 102//2
f 103//2 104//2 100//2
f 105//2 104//2 103//2
f 105//2 106//2 104//2
f 107//2 106//2 105//2
f 107//2 108//2 106//2
f 109//2 108//2 107//2
f 107//2 110//2 109//2
f 111//2 110//2 107//2
f 107//2 112//2 111//2
f 107//2 113//2 112//2
f 114//2 113//2 107//2
f 114//2 115//2 113//2
f 116//2 115//2 114//2
f 116//2 117//2 115//2
f 118//2 117//2 116//2
f 72//2 117//2 118//2
f 119//2 120//2 121//2
f 122//2 120//2 119//2
f 123//2 124//2 125//2
f 123//2 126//2 124//2
f 127//2 126//2 123//2
f 128//2 126//2 127//2
f 128//2 129//2 126//2
f 130//2 129//2 128//2
f 130//2 131//2 129//2
f 72//2 119//2 117//2
f 72//2 122//2 119//2
f 74//2 122//2 72//2
f 74//2 130//2 122//2
f 131//2 130//2 74//2
f 82//2 132//2 85//2
f 82//2 133//2 132//2
f 134//2 133//2 82//2
f 134//2 135//2 133//2
f 136//2 135//2 134//2
f 136//2 137//2 135//2
f 136//2 98//2 137//2
f 138//2 98//2 136//2
f 138//2 99//2 98//2
f 77//2 99//2 138//2
f 77//2 101//2 99//2
f 76//2 101//2 77//2
f 76//2 73//2 101//2
f 74//2 73//2 76//2
f 76//3 11//3 74//3
f 36//3 11//3 76//3
f 126//4 1//4 124//4
f 126//4 4//4 1//4
f 129//5 4//5 126//5
f 129//5 8//5 4//5
f 131//6 8//6 129//6
f 131//6 10//6 8//6
f 74//7 10//7 131//7
f 11//7 10//7 74//7
f 124//8 3//8 125//8
f 1//8 3//8 124//8
f 130//9 12//9 122//9
f 130//9 9//9 12//9
f 128//10 9//10 130//10
f 128//11 7//11 9//11
f 128//12 6//12 7//12
f 127//13 6//13 128//13
f 127//14 5//14 6//14
f 123//15 5//15 127//15
f 123//16 2//16 5//16
f 125//17 2//17 123//17
f 3//17 2//17 125//17
f 122//3 70//3 120//3
f 12//3 70//3 122//3
f 120//18 71//18 121//18
f 70//18 71//18 120//18
f 121//19 15//19 119//19
f 71//19 15//19 121//19
f 115//20 22//20 113//20
f 115//21 20//21 22//21
f 115//22 18//22 20//22
f 117//23 18//23 115//23
f 117//24 14//24 18//24
f 119//25 14//25 117//25
f 15//25 14//25 119//25
f 111//26 25//26 110//26
f 111//27 24//27 25//27
f 112//28 24//28 111//28
f 113//29 24//29 112//29
f 113//30 22//30 24//30
f 108//31 27//31 106//31
f 109//32 27//32 108//32
f 109//33 26//33 27//33
f 110//34 26//34 109//34
f 25//35 26//35 110//35
f 100//36 30//36 32//36
f 104//37 30//37 100//37
f 104//38 29//38 30//38
f 106//39 29//39 104//39
f 27//40 29//40 106//40
f 100//41 35//41 101//41
f 32//42 35//42 100//42
f 101//19 46//19 99//19
f 35//19 46//19 101//19
f 90//43 39//43 87//43
f 90//44 41//44 39//44
f 92//45 41//45 90//45
f 94//46 41//46 92//46
f 94//47 45//47 41//47
f 99//48 45//48 94//48
f 46//48 45//48 99//48
f 87//49 38//49 88//49
f 39//49 38//49 87//49
f 93//50 47//50 96//50
f 93//50 44//50 47//50
f 91//51 44//51 93//51
f 91//51 43//51 44//51
f 89//52 43//52 91//52
f 89//53 42//53 43//53
f 89//54 40//54 42//54
f 86//55 40//55 89//55
f 86//56 37//56 40//56
f 88//57 37//57 86//57
f 38//58 37//58 88//58
f 96//19 49//19 97//19
f 47//19 49//19 96//19
f 97//59 50//59 95//59
f 49//59 50//59 97//59
f 95//3 48//3 98//3
f 50//3 48//3 95//3
f 135//60 54//60 133//60
f 135//61 52//61 54//61
f 137//62 52//62 135//62
f 98//63 52//63 137//63
f 48//64 52//64 98//64
f 84//65 58//65 59//65
f 85//66 58//66 84//66
f 85//67 57//67 58//67
f 132//68 57//68 85//68
f 133//69 57//69 132//69
f 54//70 57//70 133//70
f 81//71 61//71 63//71
f 83//72 61//72 81//72
f 83//73 60//73 61//73
f 84//74 60//74 83//74
f 59//75 60//75 84//75
f 78//76 64//76 66//76
f 80//77 64//77 78//77
f 81//78 64//78 80//78
f 63//79 64//79 81//79
f 78//80 36//80 76//80
f 66//81 36//81 78//81
f 75//82 65//82 79//82
f 75//83 67//83 65//83
f 77//84 67//84 75//84
f 69//84 67//84 77//84
f 82//85 62//85 56//85
f 79//86 62//86 82//86
f 65//87 62//87 79//87
f 134//88 55//88 51//88
f 82//89 55//89 134//89
f 82//90 56//90 55//90
f 136//91 68//91 138//91
f 136//91 53//91 68//91
f 134//92 53//92 136//92
f 51//93 53//93 134//93
f 138//3 69//3 77//3
f 68//3 69//3 138//3
f 103//94 28//94 105//94
f 103//95 31//95 28//95
f 102//96 31//96 103//96
f 102//97 33//97 31//97
f 73//98 33//98 102//98
f 34//99 33//99 73//99
f 105//100 23//100 107//100
f 105//101 28//101 23//101
f 118//102 13//102 72//102
f 118//102 16//102 13//102
f 116//103 16//103 118//103
f 116//104 17//104 16//104
f 116//105 19//105 17//105
f 114//106 19//106 116//106
f 114//107 21//107 19//107
f 107//108 21//108 114//108
f 23//108 21//108 107//108
f 72//19 34//19 73//19
f 13//19 34//19 72//19
#280 polygons

